/vscmnt/brussel_pixiu_data/_data_brussel/112/vsc11236/PredSimResults/SUBJ09mtu3D/worker2.mot
version=1
nRows=9
nColumns=50
inDegrees=yes
endheader
                time	         pelvis_tilt	         pelvis_list	     pelvis_rotation	           pelvis_tx	           pelvis_ty	           pelvis_tz	       hip_flexion_r	     hip_adduction_r	      hip_rotation_r	        knee_angle_r	       ankle_angle_r	         mtp_angle_r	       hip_flexion_l	     hip_adduction_l	      hip_rotation_l	        knee_angle_l	       ankle_angle_l	         mtp_angle_l	    lumbar_extension	      lumbar_bending	     lumbar_rotation	 ercspn_r/activation	 intobl_r/activation	 extobl_r/activation	    abd_r/activation	    add_r/activation	hamstrings_r/activation	bifemsh_r/activation	glut_max_r/activation	iliopsoas_r/activation	rect_fem_r/activation	  vasti_r/activation	gastroc_r/activation	 soleus_r/activation	tib_ant_r/activation	 ercspn_l/activation	 intobl_l/activation	 extobl_l/activation	    abd_l/activation	    add_l/activation	hamstrings_l/activation	bifemsh_l/activation	glut_max_l/activation	iliopsoas_l/activation	rect_fem_l/activation	  vasti_l/activation	gastroc_l/activation	 soleus_l/activation	tib_ant_l/activation	
          0.00000000	         -3.56062994	         -2.23289125	          9.31471471	          0.00000000	          0.98827677	         -0.00473688	         28.01897113	         -0.46935376	         -9.86909785	         -5.96464953	          2.37108676	          0.24662284	        -13.27581733	         -3.91774006	         -4.55251533	        -12.98554403	          5.34631244	         37.06464373	        -13.98018993	          0.47798874	         -3.62714034	          0.01812376	          0.15461518	          0.03751797	          0.03410700	          0.19415844	          0.06120226	          0.15382978	          0.09642751	          0.14832393	          0.02441992	          0.01000042	          0.01760151	          0.01459023	          0.35614401	          0.01745508	          0.01000084	          0.01232933	          0.02571288	          0.02730116	          0.05419429	          0.19021366	          0.01762413	          0.01157576	          0.01000113	          0.01000057	          0.17393649	          0.27058672	          0.01000016	
          0.01247409	         -3.55949601	         -2.26996313	          9.18505104	          0.02017747	          0.98637684	         -0.00424662	         27.84869762	         -0.31301823	         -9.83985261	         -7.72172316	          2.06378362	          0.20890575	        -14.06441285	         -4.14328620	         -5.13997592	        -13.55617948	          3.94343932	         38.70055015	        -13.51100612	          0.85631415	         -3.67506947	          0.01500456	          0.12800320	          0.03106048	          0.12520002	          0.18379494	          0.06301463	          0.12735334	          0.09062209	          0.12279475	          0.02021694	          0.01000030	          0.01457255	          0.01207916	          0.39366846	          0.01445123	          0.01000026	          0.01207842	          0.02128725	          0.02260229	          0.04498834	          0.15940360	          0.01459076	          0.01000172	          0.01000069	          0.01000073	          0.14399905	          0.22847025	          0.01000005	
          0.02494818	         -3.54369038	         -2.30636804	          9.01217481	          0.04057598	          0.98479772	         -0.00367958	         27.59951374	         -0.14973008	         -9.79738107	         -9.36533412	          1.59094221	          0.19968680	        -14.64195818	         -4.38224994	         -5.74990133	        -14.53817360	          2.42790894	         40.20680289	        -13.03083703	          1.23768084	         -3.70073234	          0.01242271	          0.10597159	          0.02571443	          0.18496423	          0.19535186	          0.05998818	          0.10543382	          0.10339362	          0.10165960	          0.01673740	          0.01000022	          0.01206447	          0.01000019	          0.43128482	          0.03164477	          0.01000042	          0.01000131	          0.01762334	          0.01873645	          0.03724919	          0.13196912	          0.01207949	          0.01000545	          0.01000104	          0.01000188	          0.11921429	          0.18914650	          0.01000007	
          0.03742226	         -3.51511233	         -2.33892181	          8.80073145	          0.06084589	          0.98373150	         -0.00302702	         27.43065912	          0.00678579	         -9.74755072	        -11.17352733	          1.20960623	          0.16100351	        -14.89922805	         -4.64237436	         -6.36452844	        -16.08235682	          0.82766447	         41.44201657	        -12.57899996	          1.61989479	         -3.70310436	          0.01717767	          0.08773201	          0.02128854	          0.23749512	          0.23982981	          0.05227935	          0.08728694	          0.16555700	          0.08416218	          0.01385682	          0.04260478	          0.01000236	          0.01001012	          0.43899011	          0.06999814	          0.01000034	          0.01000043	          0.01459006	          0.05871165	          0.03083970	          0.10925977	          0.01000049	          0.09275385	          0.01000057	          0.01000040	          0.09869541	          0.15659102	          0.01000007	
          0.04989635	         -3.47601663	         -2.36002912	          8.55210128	          0.08071230	          0.98337699	         -0.00230770	         27.36898119	          0.14158708	         -9.69825965	        -13.22144554	          1.22447057	          0.12047388	        -14.72137158	         -4.92745176	         -7.00157939	        -18.35102317	         -0.83044018	         42.19278631	        -12.18483203	          1.99689222	         -3.67963705	          0.02464642	          0.07263179	          0.01762442	          0.25815230	          0.26799667	          0.04682083	          0.07226348	          0.19765451	          0.06967638	          0.01147220	          0.11089900	          0.01000088	          0.01000022	          0.42973585	          0.09158932	          0.01000025	          0.01000056	          0.01207887	          0.10570497	          0.02553298	          0.09045819	          0.01000008	          0.12855607	          0.01000041	          0.01000015	          0.08170819	          0.12963892	          0.01000014	
          0.06237044	         -3.42904079	         -2.35527264	          8.26477753	          0.10005897	          0.98385406	         -0.00154971	         27.30150084	          0.25869910	         -9.63308512	        -15.27938543	          1.58221347	          0.09214326	        -14.04285787	         -5.24238828	         -7.69092340	        -21.45180706	         -2.45460074	         42.05298373	        -11.85878086	          2.35380133	         -3.62700226	          0.02128765	          0.06013059	          0.01459097	          0.25883101	          0.28100764	          0.04771937	          0.05982583	          0.19805763	          0.05768385	          0.01000116	          0.14695898	          0.01000140	          0.01000067	          0.38277090	          0.10499804	          0.01000020	          0.01000041	          0.01000004	          0.13359292	          0.02113985	          0.07489204	          0.01000006	          0.10642989	          0.01000037	          0.01000008	          0.06764478	          0.10732575	          0.01000008	
          0.07484453	         -3.37592764	         -2.30970911	          7.93778010	          0.11889330	          0.98513646	         -0.00077882	         27.11223524	          0.36739446	         -9.50516209	        -17.13263719	          2.25058632	          0.11837247	        -12.87407994	         -5.59051177	         -8.40640234	        -25.31719893	         -4.19956846	         41.00226893	        -11.59655881	          2.67376172	         -3.54370027	          0.01762403	          0.04978106	          0.01207964	          0.25129011	          0.27367858	          0.05246022	          0.04952895	          0.20066113	          0.04775544	          0.01000096	          0.19547527	          0.01000128	          0.01000039	          0.32832190	          0.08845647	          0.01000013	          0.01000074	          0.01000004	          0.17200545	          0.01750840	          0.06200381	          0.01000004	          0.08811160	          0.01000022	          0.01000004	          0.05600193	          0.08885308	          0.01814899	
          0.08731862	         -3.31911657	         -2.21145298	          7.56980360	          0.13720626	          0.98714218	         -0.00002742	         26.70373963	          0.47356174	         -9.28167131	        -18.56844134	          3.02442741	          0.27271089	        -11.26429390	         -5.96587852	         -9.09651021	        -29.80532674	         -6.07971613	         38.82404827	        -11.39615771	          2.94432212	         -3.42536537	          0.01459084	          0.04121287	          0.01000066	          0.23542439	          0.22657468	          0.05457898	          0.04100435	          0.16612426	          0.03953589	          0.01000058	          0.21273257	          0.01000117	          0.01000034	          0.27361129	          0.08128903	          0.05275654	          0.03768462	          0.01000004	          0.14516056	          0.01767618	          0.05133229	          0.01000010	          0.07294613	          0.01000019	          0.01000006	          0.04636304	          0.07355988	          0.06292939	
          0.09979271	         -3.26008764	         -2.06268936	          7.17261907	          0.15491651	          0.98969015	          0.00070504	         26.09414463	          0.56942528	         -8.97392539	        -19.59125364	          3.80000022	          0.59289519	         -9.28968658	         -6.36025305	         -9.66297932	        -34.76593547	         -7.76705500	         35.07629818	        -11.26586373	          3.15977459	         -3.27398047	          0.01207982	          0.03411942	          0.01000019	          0.19490435	          0.18757773	          0.05349570	          0.03394696	          0.13753165	          0.03273108	          0.01000071	          0.24583141	          0.01000087	          0.01000030	          0.22877264	          0.12495398	          0.10597052	          0.10065904	          0.01328197	          0.12017587	          0.01463555	          0.04249761	          0.01000080	          0.06039092	          0.01000257	          0.01000011	          0.03838318	          0.06089892	          0.17919028	
